<svg width="424" height="80" viewBox="0 0 424 80" fill="none" xmlns="http://www.w3.org/2000/svg">
<path d="M44.9783 0.0217707C46.9908 0.265523 49.0815 2.89361 49.569 5.67177C50.0534 8.44993 48.3815 10.4249 45.9721 10.2374C43.5596 10.0561 41.5471 7.72801 41.4721 4.88113C41.4002 2.03425 42.9659 -0.231349 44.9783 0.0155307V0.0217707Z" fill="black"/>
<path d="M38.5059 4.88741C38.5809 2.04053 37.034 -0.225063 35.0215 0.0218086V0.0280486C33.0091 0.271809 30.8934 2.89989 30.409 5.67805C29.9247 8.45301 31.5997 10.4249 34.0184 10.2436C36.4341 10.0624 38.431 7.73429 38.5059 4.88741Z" fill="black"/>
<path d="M27.444 6.23109C28.0816 3.49669 27.0878 1.73421 25.0784 2.54045L25.0847 2.53733C23.069 3.34357 20.3972 6.25605 19.3503 8.78421C18.3034 11.3124 19.6565 12.7217 22.069 12.1217C24.4816 11.5249 26.8065 8.96237 27.444 6.23109Z" fill="black"/>
<path d="M15.1313 8.28705C17.1469 6.68393 17.5844 7.71205 16.3938 10.1277C15.2 12.5495 12.5469 15.2027 10.1251 16.3964C7.70635 17.5902 6.69067 17.1402 8.29379 15.1246C9.89691 13.109 13.1187 9.89017 15.1313 8.28393V8.28705Z" fill="black"/>
<path d="M54.9249 2.54058C56.9342 3.34682 59.5936 6.25618 60.6342 8.78746C61.6717 11.3156 60.3248 12.725 57.9155 12.125C55.503 11.525 53.1655 8.9625 52.5405 6.23434C51.9123 3.50306 52.9217 1.74058 54.9311 2.5437L54.9249 2.54058Z" fill="black"/>
<path d="M64.8689 8.28707C66.8845 9.88395 70.1095 13.112 71.7064 15.1277C73.3033 17.1433 72.2814 17.5871 69.8658 16.3995C67.4471 15.212 64.7845 12.5527 63.5971 10.1308C62.4095 7.7121 62.8533 6.6933 64.8689 8.29018V8.28707Z" fill="black"/>
<path d="M12.0969 22.0904C11.5 24.5091 8.96557 26.8279 6.23437 27.4622C3.50309 28.0966 1.73437 27.0935 2.53749 25.0778C3.34061 23.0653 6.24373 20.3997 8.77189 19.3591C11.3001 18.3122 12.6906 19.6747 12.0937 22.0904H12.0969Z" fill="black"/>
<path d="M10.228 34.0343C10.0436 36.4436 7.7124 38.4468 4.87176 38.5218C2.03424 38.5937 -0.231365 37.0374 0.0186352 35.0249C0.265507 33.0156 2.87176 30.9124 5.65304 30.428C8.43744 29.9437 10.4124 31.6249 10.2281 34.0312L10.228 34.0343Z" fill="black"/>
<path d="M10.2312 45.9839C10.4093 48.3964 8.43428 50.0746 5.65612 49.587C2.87796 49.1027 0.265475 46.987 0.0217151 44.9777C-0.222037 42.9652 2.03419 41.4026 4.87484 41.4808C7.71236 41.5589 10.05 43.5652 10.2312 45.9839Z" fill="black"/>
<path d="M12.1032 57.9248C12.7063 60.3435 11.3 61.6904 8.76564 60.6435C6.23124 59.5967 3.35316 56.9373 2.54692 54.9248C1.73756 52.9123 3.50004 51.9186 6.2282 52.553C8.95948 53.1874 11.4968 55.5092 12.1032 57.9248Z" fill="black"/>
<path d="M16.3872 69.8654C17.5841 72.2779 17.1497 73.3186 15.131 71.7123C13.1154 70.1092 9.90283 66.8936 8.29971 64.8779C6.69659 62.8623 7.71533 62.4092 10.131 63.6061C12.5435 64.8029 15.1872 67.4498 16.3872 69.8623V69.8654Z" fill="black"/>
<path d="M21.2623 15.6183C23.7811 15.0933 25.4873 17.0183 25.1686 19.7527C24.8529 22.4902 22.4748 24.8652 19.7404 25.184C17.0091 25.5027 15.0779 23.8121 15.6029 21.2808C16.1248 18.7496 18.7435 16.1402 21.2685 15.6152L21.2623 15.6183Z" fill="black"/>
<path d="M33.7504 13.9752C36.2691 13.8127 38.2785 16.097 38.2379 18.9439C38.1973 21.7876 35.9566 24.0939 33.2316 24.1908C30.5067 24.2876 28.4285 22.1908 28.6723 19.4095C28.916 16.6282 31.2348 14.1313 33.7536 13.9751L33.7504 13.9752Z" fill="black"/>
<path d="M46.2408 13.9751C48.769 14.1376 51.069 16.6283 51.3095 19.4095C51.5533 22.1908 49.4782 24.2846 46.7502 24.1908C44.0189 24.0939 41.7783 21.7877 41.7439 18.9439C41.7064 16.1002 43.7158 13.8158 46.2439 13.9752L46.2408 13.9751Z" fill="black"/>
<path d="M58.7184 15.6183C61.2465 16.1433 63.859 18.7527 64.384 21.2839C64.9058 23.8152 62.9715 25.5057 60.2464 25.187C57.5214 24.8683 55.134 22.4933 54.8183 19.7557C54.5027 17.0182 56.1964 15.0964 58.7245 15.6213L58.7184 15.6183Z" fill="black"/>
<path d="M71.2065 19.3591C73.7347 20.3967 76.6628 23.0654 77.4627 25.0779C78.2659 27.0903 76.4877 28.0872 73.7565 27.4623C71.0252 26.8341 68.4783 24.506 67.8815 22.0904C67.2846 19.6717 68.6815 18.3186 71.2033 19.3591H71.2065Z" fill="black"/>
<path d="M19.3871 28.6967C22.1622 28.453 24.2778 30.5374 24.1778 33.2592C24.0778 35.9811 21.7591 38.2186 18.9247 38.253C16.0934 38.2874 13.7965 36.2874 13.9591 33.7655C14.1216 31.2405 16.6153 28.9467 19.3872 28.6999L19.3871 28.6967Z" fill="black"/>
<path d="M33.1184 27.9311C35.8966 27.8593 38.134 30.1467 38.1246 32.9843C38.1184 35.8218 35.7997 38.1249 32.9653 38.1343C30.134 38.1436 27.8466 35.9124 27.9184 33.1405C27.9903 30.3749 30.3434 27.9999 33.1184 27.928V27.9311Z" fill="black"/>
<path d="M46.8625 27.9311C49.6407 28.0061 52.0032 30.3749 52.075 33.1436C52.1469 35.9155 49.8563 38.1467 47.0188 38.1374C44.1813 38.128 41.8719 35.8218 41.8594 32.9874C41.8469 30.1499 44.0876 27.8624 46.8657 27.9343L46.8625 27.9311Z" fill="black"/>
<path d="M60.5937 28.6967C63.3719 28.9436 65.8593 31.2374 66.0219 33.7623C66.1844 36.2873 63.8969 38.2842 61.0563 38.2498C58.2187 38.2155 55.9156 35.9842 55.8125 33.2561C55.7125 30.5342 57.8156 28.4498 60.5938 28.6936L60.5937 28.6967Z" fill="black"/>
<path d="M74.3247 30.4311C77.1029 30.9155 79.731 33.0155 79.981 35.028C80.2278 37.0405 77.9497 38.5967 75.1059 38.5249C72.259 38.4499 69.9341 36.4467 69.7497 34.0374C69.5653 31.628 71.5466 29.9467 74.3247 30.4342V30.4311Z" fill="black"/>
<path d="M18.9313 41.744C21.7688 41.7846 24.0781 44.0221 24.175 46.7565C24.2719 49.494 22.1688 51.5627 19.3937 51.3189C16.6219 51.0721 14.125 48.7689 13.9656 46.2439C13.8093 43.7189 16.0905 41.7033 18.9312 41.7408L18.9313 41.744Z" fill="black"/>
<path d="M32.9687 41.8719C35.8062 41.8813 38.1062 44.1969 38.1187 47.0313C38.1312 49.8688 35.9 52.1563 33.1218 52.0844C30.3437 52.0094 27.9812 49.65 27.9094 46.8719C27.8375 44.0907 30.1281 41.8595 32.9656 41.8688L32.9687 41.8719Z" fill="black"/>
<path d="M47.0216 41.872C49.8591 41.8626 52.1435 44.0938 52.0685 46.8751C51.9904 49.6564 49.6279 52.0157 46.856 52.0876C44.081 52.1594 41.8529 49.872 41.8591 47.0344C41.8654 44.1969 44.181 41.8844 47.0185 41.8751L47.0216 41.872Z" fill="black"/>
<path d="M61.0593 41.744C63.8969 41.7034 66.1718 43.7222 66.0125 46.2471C65.8562 48.7721 63.3625 51.0784 60.5843 51.3222C57.8061 51.569 55.7061 49.494 55.803 46.7597C55.903 44.0222 58.2155 41.7846 61.0561 41.7472L61.0593 41.744Z" fill="black"/>
<path d="M75.1 41.4839C77.9468 41.412 80.2187 42.9683 79.975 44.9808C79.7313 46.9901 77.0937 49.1057 74.3188 49.5901C71.5406 50.0745 69.5781 48.3995 69.7594 45.987C69.9375 43.5683 72.2562 41.562 75.1 41.4839Z" fill="black"/>
<path d="M19.7312 54.8216C22.4625 55.1404 24.8499 57.5341 25.1719 60.2623C25.4938 62.9904 23.775 64.906 21.2531 64.3872C18.7344 63.8685 16.125 61.2528 15.6031 58.7372C15.0813 56.2185 17 54.506 19.7313 54.8248L19.7312 54.8216Z" fill="black"/>
<path d="M33.2377 55.8279C35.969 55.9248 38.2095 58.2404 38.2439 61.0748C38.2814 63.906 36.2721 66.1904 33.7439 66.0279C31.2158 65.8654 28.9221 63.3748 28.6752 60.6029C28.4283 57.8311 30.5065 55.7279 33.2346 55.8217L33.2377 55.8279Z" fill="black"/>
<path d="M46.7408 55.8279C49.4658 55.7311 51.5439 57.8373 51.3002 60.6092C51.0564 63.3811 48.7533 65.8717 46.2314 66.0342C43.7127 66.1967 41.7065 63.9123 41.7439 61.0811C41.7814 58.2498 44.0126 55.9311 46.7408 55.8342V55.8279Z" fill="black"/>
<path d="M60.2472 54.8215C62.9785 54.5027 64.9035 56.2121 64.3754 58.734C63.8473 61.2527 61.2504 63.8684 58.7254 64.384C56.1972 64.9027 54.5005 62.9871 54.8192 60.259C55.1348 57.5308 57.5129 55.1372 60.2473 54.8184L60.2472 54.8215Z" fill="black"/>
<path d="M73.7593 52.5528C76.4905 51.9184 78.2624 52.9122 77.4561 54.9246C76.6468 56.9371 73.7405 59.6059 71.2124 60.6434C68.6842 61.6809 67.2717 60.3371 67.8749 57.9246C68.478 55.5059 71.028 53.1871 73.7593 52.5528Z" fill="black"/>
<path d="M22.0719 67.8966C24.4907 68.4966 26.8095 71.0342 27.447 73.7654C28.0845 76.4966 27.0845 78.2685 25.0751 77.4622C23.0658 76.656 20.3939 73.7498 19.3502 71.2216C18.3033 68.6934 19.6533 67.2998 22.0689 67.8966H22.0719Z" fill="black"/>
<path d="M34.0128 69.7688C36.4253 69.95 38.4316 72.2844 38.5128 75.125C38.591 77.9625 37.0347 80.2313 35.0222 79.9844C33.0097 79.7406 30.9035 77.1157 30.4128 74.3375C29.9222 71.5593 31.6004 69.5844 34.0097 69.7719L34.0128 69.7688Z" fill="black"/>
<path d="M45.9657 69.7687C48.3782 69.5874 50.0439 71.5593 49.5626 74.3343C49.0813 77.1125 46.9907 79.7343 44.9782 79.9812C42.9657 80.2281 41.4031 77.9625 41.4782 75.1218C41.5532 72.2843 43.5532 69.9468 45.9657 69.7656V69.7687Z" fill="black"/>
<path d="M57.9097 67.8968C60.3221 67.2968 61.669 68.6968 60.6284 71.2217C59.5909 73.7499 56.9346 76.6562 54.9253 77.4624C52.9159 78.2686 51.9159 76.4999 52.5409 73.7655C53.169 71.0342 55.494 68.4968 57.9065 67.8968H57.9097Z" fill="black"/>
<path d="M69.8624 63.6063C72.2811 62.4125 73.2999 62.8625 71.703 64.8781C70.1061 66.8937 66.8843 70.1125 64.8686 71.7125C62.853 73.3094 62.403 72.2781 63.5905 69.8656C64.7779 67.4531 67.4373 64.8 69.8592 63.6094L69.8624 63.6063Z" fill="black"/>
<path d="M114.71 59.548C117.099 60.556 119.694 61.06 122.494 61.06C125.518 61.06 128.224 60.5373 130.614 59.492C133.04 58.4467 135.15 56.9907 136.942 55.124L133.302 51.54C132.07 52.9213 130.558 54.0227 128.766 54.844C126.974 55.628 124.864 56.02 122.438 56.02C120.384 56.02 118.499 55.6653 116.782 54.956C115.064 54.2093 113.571 53.164 112.302 51.82C111.032 50.476 110.043 48.8893 109.334 47.06C108.662 45.2307 108.326 43.2333 108.326 41.068C108.326 38.9027 108.662 36.9053 109.334 35.076C110.043 33.2467 111.032 31.66 112.302 30.316C113.571 28.972 115.064 27.9453 116.782 27.236C118.499 26.4893 120.384 26.116 122.438 26.116C124.715 26.116 126.731 26.508 128.486 27.292C130.278 28.076 131.79 29.1587 133.022 30.54L136.662 26.9C134.87 25.108 132.816 23.6893 130.502 22.644C128.187 21.5987 125.499 21.076 122.438 21.076C119.638 21.076 117.043 21.5987 114.654 22.644C112.302 23.652 110.23 25.0707 108.438 26.9C106.683 28.692 105.32 30.8013 104.35 33.228C103.379 35.6547 102.894 38.268 102.894 41.068C102.894 43.8307 103.379 46.4253 104.35 48.852C105.32 51.2787 106.683 53.4067 108.438 55.236C110.23 57.0653 112.32 58.5027 114.71 59.548Z" fill="black"/>
<path fill-rule="evenodd" clip-rule="evenodd" d="M293.94 61.06C291.177 61.06 288.602 60.556 286.212 59.548C283.823 58.5027 281.732 57.0653 279.94 55.236C278.148 53.3693 276.748 51.2227 275.74 48.796C274.77 46.3693 274.284 43.7747 274.284 41.012C274.284 38.212 274.77 35.6173 275.74 33.228C276.748 30.8013 278.13 28.6733 279.884 26.844C281.676 25.0147 283.748 23.596 286.1 22.588C288.49 21.58 291.065 21.076 293.828 21.076C296.591 21.076 299.148 21.58 301.5 22.588C303.89 23.596 305.98 25.0147 307.772 26.844C309.564 28.6733 310.964 30.8013 311.972 33.228C312.98 35.6547 313.484 38.268 313.484 41.068C313.484 43.8307 312.98 46.4253 311.972 48.852C310.964 51.2787 309.564 53.4067 307.772 55.236C306.018 57.0653 303.945 58.5027 301.556 59.548C299.204 60.556 296.665 61.06 293.94 61.06ZM293.828 56.02C296.628 56.02 299.073 55.3853 301.164 54.116C303.292 52.8093 304.972 51.036 306.204 48.796C307.436 46.5187 308.052 43.924 308.052 41.012C308.052 38.8467 307.698 36.868 306.988 35.076C306.279 33.2467 305.289 31.66 304.02 30.316C302.751 28.972 301.258 27.9453 299.54 27.236C297.823 26.4893 295.919 26.116 293.828 26.116C291.065 26.116 288.62 26.7507 286.492 28.02C284.401 29.2893 282.74 31.044 281.508 33.284C280.314 35.524 279.716 38.1 279.716 41.012C279.716 43.1773 280.052 45.1933 280.724 47.06C281.434 48.8893 282.404 50.476 283.636 51.82C284.906 53.1267 286.399 54.1533 288.116 54.9C289.871 55.6467 291.775 56.02 293.828 56.02Z" fill="black"/>
<path d="M335.038 60.5H331.23L315.662 21.636H321.374L333.166 51.864L345.062 21.636H350.718L335.038 60.5Z" fill="black"/>
<path d="M371.632 61.06C368.758 61.06 366.182 60.4253 363.904 59.156C361.664 57.8493 359.891 56.076 358.584 53.836C357.278 51.5587 356.624 48.9827 356.624 46.108V21.636H361.888V45.996C361.888 48.0493 362.318 49.8227 363.176 51.316C364.035 52.8093 365.192 53.9667 366.648 54.788C368.142 55.6093 369.803 56.02 371.632 56.02C373.536 56.02 375.198 55.6093 376.616 54.788C378.072 53.9667 379.211 52.8093 380.032 51.316C380.891 49.8227 381.32 48.068 381.32 46.052V21.636H386.64V46.164C386.64 49.0387 385.987 51.596 384.68 53.836C383.374 56.076 381.6 57.8493 379.36 59.156C377.12 60.4253 374.544 61.06 371.632 61.06Z" fill="black"/>
<path d="M420.891 21.636H395.299V60.5H421.171V55.684H400.563V42.916H419.323V38.324H400.563V26.452H420.891V21.636Z" fill="black"/>
<path d="M254.392 26.452V60.5H259.656V26.452H272.816V21.636H241.176V26.452H254.392Z" fill="black"/>
<path fill-rule="evenodd" clip-rule="evenodd" d="M216.594 45.38V60.5H211.33V21.636H225.778C228.167 21.636 230.295 22.1213 232.162 23.092C234.066 24.0627 235.559 25.444 236.642 27.236C237.762 28.9907 238.322 31.0813 238.322 33.508C238.322 35.8973 237.762 37.988 236.642 39.78C235.559 41.5347 234.066 42.916 232.162 43.924C230.295 44.8947 228.167 45.38 225.778 45.38H216.594ZM216.594 26.228V40.788H225.442C226.898 40.788 228.186 40.4893 229.306 39.892C230.463 39.2947 231.359 38.4547 231.994 37.372C232.666 36.2893 233.002 35.0013 233.002 33.508C233.002 32.0147 232.666 30.7267 231.994 29.644C231.359 28.5613 230.463 27.7213 229.306 27.124C228.186 26.5267 226.898 26.228 225.442 26.228H216.594Z" fill="black"/>
<path d="M192.143 43.1979V60.5H186.879V43.3558L172.487 21.636H178.591L189.542 38.4111L200.543 21.636H206.535L192.143 43.1979Z" fill="black"/>
<path fill-rule="evenodd" clip-rule="evenodd" d="M148.672 43.588V60.5H143.408V21.636H157.688C160.152 21.636 162.299 22.1213 164.128 23.092C165.958 24.0253 167.358 25.3133 168.328 26.956C169.336 28.5987 169.84 30.484 169.84 32.612C169.84 34.8147 169.336 36.7373 168.328 38.38C167.358 40.0227 165.958 41.3107 164.128 42.244C162.506 43.0386 160.634 43.4808 158.513 43.5708L172.472 60.5H165.808L152.105 43.588H148.672ZM148.672 26.228H157.52C159.798 26.228 161.534 26.844 162.728 28.076C163.96 29.308 164.576 30.8573 164.576 32.724C164.576 34.7027 163.96 36.2707 162.728 37.428C161.496 38.5853 159.742 39.164 157.464 39.164H148.672V26.228Z" fill="black"/>
</svg>
